# xmcd
#
# Track frame offsets:
#	150
#	14577
#	27201
#	39996
#	50489
#	60665
#	70924
#	83460
#	95017
#	109013
#	122304
#	136753
#	149288
#	162068
#	174823
#
# Disc length: 2510 seconds
#
# Revision: 1
# Processed by: cddbd v1.5.2PL0 Copyright (c) Steve Scherf et al.
# Submitted via: audiograbber 1.83.01
#
DISCID=b509cc0f
DTITLE=Ray Charles - theintrocollection CD 2
DYEAR=1952
DGENRE=Blues
TTITLE0=Kissa Me Baby
TTITLE1=I Got A Woman
TTITLE2=Greenbacks
TTITLE3=Blackjack
TTITLE4=It's Alright
TTITLE5=Swanee River Rock
TTITLE6=Mary Ann
TTITLE7=What Would I Do Without You?
TTITLE8=Come Back Baby
TTITLE9=Don´t You Know?
TTITLE10=Losing Hand
TTITLE11=Jumpin' In The Morning
TTITLE12=Heartbreaker
TTITLE13=Feelin' Sad
TTITLE14=The Midnight Hour
EXTD=CD 2
EXTT0=
EXTT1=
EXTT2=
EXTT3=
EXTT4=
EXTT5=
EXTT6=
EXTT7=
EXTT8=
EXTT9=
EXTT10=
EXTT11=
EXTT12=
EXTT13=
EXTT14=
PLAYORDER=
